<svg width="512" height="512" viewBox="0 0 200 200" fill="none" xmlns="http://www.w3.org/2000/svg" role="img" aria-labelledby="logoTitle logoDesc">
  <title id="logoTitle">Nutrición Corporativa Saludable</title>
  <desc id="logoDesc">Logotipo minimalista con una manzana y una hoja en verde oscuro.</desc>
  <path
    d="M100 44c-22 0-40 15-44 36-2 11-1 24 2 36 7 27 22 54 42 54s35-27 42-54c3-12 4-25 2-36-4-21-22-36-44-36Z"
    stroke="#0E3628"
    stroke-width="8"
    stroke-linecap="round"
    stroke-linejoin="round"
    fill="none"
  />
  <path
    d="M101 64c1-12 7-24 18-31"
    stroke="#0E3628"
    stroke-width="8"
    stroke-linecap="round"
    stroke-linejoin="round"
    fill="none"
  />
  <path
    d="M120 34c15-8 33-5 41 9-14 7-29 7-41-9Z"
    fill="#0E3628"
  />
  <path
    d="M86 76c-10 0-20 8-22 18"
    stroke="#0E3628"
    stroke-width="6"
    stroke-linecap="round"
    fill="none"
  />
</svg>
